<svg width="29" height="29" viewBox="0 0 29 29" fill="none" xmlns="http://www.w3.org/2000/svg">
<g clip-path="url(#clip0_3615_136)">
<path d="M13.8999 8.54776C12.8831 8.54776 11.3091 7.39162 9.65146 7.4334C7.46453 7.46126 5.45869 8.70099 4.3304 10.665C2.0599 14.6071 3.74536 20.4296 5.96015 23.6334C7.04664 25.1935 8.32816 26.9486 10.0276 26.8929C11.6573 26.8232 12.2702 25.8342 14.2482 25.8342C16.2122 25.8342 16.7694 26.8929 18.4967 26.8511C20.2518 26.8232 21.3661 25.2631 22.4387 23.6891C23.6784 21.8783 24.1938 20.1231 24.2217 20.0256C24.1799 20.0117 20.809 18.7163 20.7672 14.816C20.7393 11.5565 23.4277 9.99643 23.5531 9.92678C22.0208 7.68413 19.6667 7.4334 18.8449 7.37769C16.6998 7.21053 14.9029 8.54776 13.8999 8.54776ZM17.5216 5.26041C18.427 4.17391 19.026 2.6556 18.8588 1.15121C17.5634 1.20693 16.0033 2.01484 15.07 3.10134C14.2343 4.06247 13.5099 5.60864 13.7049 7.08517C15.1397 7.1966 16.6162 6.34691 17.5216 5.26041Z" fill="#111315"/>
</g>
<defs>
<clipPath id="clip0_3615_136">
<rect width="27.8589" height="27.8589" fill="white" transform="translate(0.406982 0.164551)"/>
</clipPath>
</defs>
</svg>
