<svg width="29" height="29" viewBox="0 0 29 29" fill="none" xmlns="http://www.w3.org/2000/svg">
<g clip-path="url(#clip0_3615_93)">
<path d="M4.19028 8.88206C5.15607 6.95892 6.63766 5.34225 8.46945 4.21275C10.3012 3.08326 12.4111 2.48544 14.5631 2.48612C17.6914 2.48612 20.3194 3.6353 22.3288 5.50997L19.0008 8.83911C17.797 7.68877 16.2671 7.10257 14.5631 7.10257C11.5392 7.10257 8.9797 9.14556 8.06848 11.8885C7.83632 12.585 7.70399 13.3279 7.70399 14.094C7.70399 14.8601 7.83632 15.603 8.06848 16.2995C8.98086 19.0436 11.5392 21.0854 14.5631 21.0854C16.1244 21.0854 17.4535 20.6734 18.4935 19.9769C19.0965 19.5799 19.6127 19.0648 20.0109 18.4626C20.4091 17.8605 20.6811 17.1839 20.8105 16.4736H14.5631V11.9837H25.4954C25.6324 12.7428 25.7067 13.5345 25.7067 14.3575C25.7067 17.8933 24.4414 20.8695 22.2452 22.8893C20.3252 24.663 17.6972 25.7019 14.5631 25.7019C13.0386 25.7025 11.5288 25.4027 10.1202 24.8195C8.71161 24.2364 7.43173 23.3814 6.35371 22.3034C5.2757 21.2254 4.42069 19.9455 3.83756 18.5369C3.25442 17.1283 2.95459 15.6185 2.9552 14.094C2.9552 12.2205 3.40327 10.4491 4.19028 8.88206Z" fill="#111315"/>
</g>
<defs>
<clipPath id="clip0_3615_93">
<rect width="27.8589" height="27.8589" fill="white" transform="translate(0.633545 0.164551)"/>
</clipPath>
</defs>
</svg>
