<svg width="22" height="22" viewBox="0 0 22 22" fill="none" xmlns="http://www.w3.org/2000/svg">
<path d="M14.3094 7.47095H7.37886M14.3094 7.47095C16.2233 7.47095 17.7747 9.02242 17.7747 10.9362V16.1342C17.7747 18.048 16.2233 19.5995 14.3094 19.5995H7.37886C5.46504 19.5995 3.91357 18.048 3.91357 16.1342V10.9362C3.91357 9.02242 5.46504 7.47095 7.37886 7.47095M14.3094 7.47095V5.73831C14.3094 3.82449 12.758 2.27303 10.8441 2.27303C8.93032 2.27303 7.37886 3.82449 7.37886 5.73831V7.47095M12.5768 13.5352C12.5768 14.4921 11.8011 15.2678 10.8441 15.2678C9.88723 15.2678 9.1115 14.4921 9.1115 13.5352C9.1115 12.5783 9.88723 11.8026 10.8441 11.8026C11.8011 11.8026 12.5768 12.5783 12.5768 13.5352Z" stroke="#CED1DC" stroke-width="1.41762" stroke-linecap="round" stroke-linejoin="round"/>
</svg>
